<?xml version="1.0" standalone="no"?>
<!DOCTYPE svg PUBLIC "-//W3C//DTD SVG 20010904//EN"
 "http://www.w3.org/TR/2001/REC-SVG-20010904/DTD/svg10.dtd">
<svg version="1.0" xmlns="http://www.w3.org/2000/svg"
 width="100.000000pt" height="100.000000pt" viewBox="0 0 100.000000 100.000000"
 preserveAspectRatio="xMidYMid meet">

<g transform="translate(0.000000,100.000000) scale(0.100000,-0.100000)"
fill="#000000" stroke="none">
<path d="M581 942 c-47 -49 -86 -129 -108 -219 l-18 -73 -30 32 c-16 17 -44
37 -62 44 -40 17 -135 17 -188 -1 l-40 -13 56 0 c73 0 122 -24 165 -80 19 -25
34 -48 34 -52 0 -3 -23 -17 -51 -30 -50 -24 -79 -52 -79 -77 0 -8 9 -7 30 5
25 14 33 15 51 4 16 -10 24 -10 35 -1 10 8 14 8 14 0 0 -21 -49 -43 -85 -39
l-36 4 7 -60 c7 -60 24 -109 43 -121 6 -3 -6 -20 -25 -38 -19 -18 -39 -47 -44
-66 -5 -18 -7 -31 -3 -27 3 3 12 1 20 -5 7 -6 13 -8 13 -3 0 5 4 3 9 -5 10
-15 165 -43 196 -35 16 4 17 3 5 -5 -11 -8 -12 -11 -2 -11 10 0 8 -5 -4 -17
-17 -17 -14 -18 73 -27 50 -5 108 -5 128 -2 34 7 36 8 19 21 -18 14 -18 14 4
15 13 0 37 7 55 17 29 15 30 17 12 24 -19 8 -19 8 2 15 l23 6 -25 20 c-21 16
-28 18 -40 8 -10 -8 -15 -9 -15 -2 0 6 -10 14 -22 18 -13 3 -42 24 -65 45 -24
22 -50 39 -60 39 -13 0 -8 9 19 37 91 96 98 188 18 255 l-38 33 37 145 c20 80
43 160 49 179 7 19 12 45 12 57 0 39 -46 32 -89 -14z m-38 -406 c9 -7 17 -17
17 -22 0 -4 -5 -3 -11 3 -6 6 -18 9 -26 6 -12 -5 -12 -7 -1 -15 9 -7 7 -8 -7
-3 -11 4 -26 8 -32 8 -19 1 -15 25 5 30 29 8 36 7 55 -7z m25 -67 c20 -8 32
-38 15 -40 -5 0 -27 -2 -50 -5 -44 -4 -92 9 -105 29 -12 18 -9 27 7 27 8 0 15
-4 15 -10 0 -16 37 -11 44 6 6 15 16 14 74 -7z m-212 -238 c0 -11 -4 -17 -8
-15 -4 3 -8 12 -8 20 0 8 4 14 8 14 4 0 8 -9 8 -19z m97 2 c-7 -3 -13 -12 -12
-21 0 -11 2 -12 6 -4 2 6 10 12 16 12 20 0 -11 -24 -33 -25 -16 -1 -17 1 -8
12 9 11 8 17 -3 25 -11 8 -11 9 3 4 10 -3 20 -1 24 5 3 6 9 7 13 3 3 -4 0 -9
-6 -11z"/>
</g>
</svg>
